<svg xmlns="http://www.w3.org/2000/svg" xmlns:xlink="http://www.w3.org/1999/xlink" width="330" zoomAndPan="magnify" viewBox="0 0 247.5 60" height="70" preserveAspectRatio="xMidYMid meet" version="1.0"><defs><g/></defs><g fill="#d9d9d9" fill-opacity="1"><g transform="translate(-0.469587, 49.763982)"><g><path d="M 28.359375 -9.65625 C 29.992188 -9.65625 31.578125 -9.898438 33.109375 -10.390625 C 34.640625 -10.890625 35.769531 -11.367188 36.5 -11.828125 L 37.578125 -12.5625 L 42.125 -3.46875 C 41.96875 -3.351562 41.753906 -3.203125 41.484375 -3.015625 C 41.222656 -2.828125 40.609375 -2.472656 39.640625 -1.953125 C 38.679688 -1.441406 37.648438 -1 36.546875 -0.625 C 35.453125 -0.25 34.015625 0.0859375 32.234375 0.390625 C 30.453125 0.703125 28.613281 0.859375 26.71875 0.859375 C 22.351562 0.859375 18.21875 -0.210938 14.3125 -2.359375 C 10.414062 -4.503906 7.273438 -7.453125 4.890625 -11.203125 C 2.503906 -14.953125 1.3125 -19.003906 1.3125 -23.359375 C 1.3125 -26.660156 2.007812 -29.828125 3.40625 -32.859375 C 4.8125 -35.890625 6.675781 -38.484375 9 -40.640625 C 11.332031 -42.804688 14.050781 -44.53125 17.15625 -45.8125 C 20.269531 -47.101562 23.457031 -47.75 26.71875 -47.75 C 29.75 -47.75 32.539062 -47.390625 35.09375 -46.671875 C 37.65625 -45.953125 39.46875 -45.234375 40.53125 -44.515625 L 42.125 -43.421875 L 37.578125 -34.328125 C 37.304688 -34.554688 36.90625 -34.832031 36.375 -35.15625 C 35.84375 -35.476562 34.78125 -35.90625 33.1875 -36.4375 C 31.601562 -36.96875 29.992188 -37.234375 28.359375 -37.234375 C 25.785156 -37.234375 23.472656 -36.816406 21.421875 -35.984375 C 19.378906 -35.148438 17.757812 -34.050781 16.5625 -32.6875 C 15.375 -31.320312 14.46875 -29.851562 13.84375 -28.28125 C 13.21875 -26.707031 12.90625 -25.101562 12.90625 -23.46875 C 12.90625 -19.914062 14.238281 -16.722656 16.90625 -13.890625 C 19.582031 -11.066406 23.398438 -9.65625 28.359375 -9.65625 Z M 28.359375 -9.65625 "/></g></g></g><g fill="#d9d9d9" fill-opacity="1"><g transform="translate(42.329653, 49.763982)"><g><path d="M 3.40625 0 L 3.40625 -29.15625 L 13.46875 -29.15625 L 13.46875 -24.953125 L 13.578125 -24.953125 C 13.660156 -25.109375 13.785156 -25.296875 13.953125 -25.515625 C 14.128906 -25.742188 14.5 -26.140625 15.0625 -26.703125 C 15.632812 -27.273438 16.238281 -27.789062 16.875 -28.25 C 17.519531 -28.707031 18.351562 -29.113281 19.375 -29.46875 C 20.40625 -29.832031 21.453125 -30.015625 22.515625 -30.015625 C 23.609375 -30.015625 24.6875 -29.863281 25.75 -29.5625 C 26.8125 -29.257812 27.585938 -28.957031 28.078125 -28.65625 L 28.875 -28.1875 L 24.671875 -19.671875 C 23.421875 -20.734375 21.675781 -21.265625 19.4375 -21.265625 C 18.226562 -21.265625 17.1875 -21 16.3125 -20.46875 C 15.4375 -19.9375 14.816406 -19.289062 14.453125 -18.53125 C 14.097656 -17.769531 13.84375 -17.125 13.6875 -16.59375 C 13.539062 -16.0625 13.46875 -15.644531 13.46875 -15.34375 L 13.46875 0 Z M 3.40625 0 "/></g></g></g><g fill="#d9d9d9" fill-opacity="1"><g transform="translate(70.294085, 49.763982)"><g><path d="M 32.90625 -13.1875 L 11.765625 -13.1875 C 11.765625 -11.144531 12.425781 -9.628906 13.75 -8.640625 C 15.082031 -7.648438 16.523438 -7.15625 18.078125 -7.15625 C 19.703125 -7.15625 20.988281 -7.375 21.9375 -7.8125 C 22.882812 -8.25 23.96875 -9.113281 25.1875 -10.40625 L 32.453125 -6.765625 C 29.421875 -1.679688 24.382812 0.859375 17.34375 0.859375 C 12.945312 0.859375 9.175781 -0.644531 6.03125 -3.65625 C 2.882812 -6.675781 1.3125 -10.304688 1.3125 -14.546875 C 1.3125 -18.796875 2.882812 -22.4375 6.03125 -25.46875 C 9.175781 -28.5 12.945312 -30.015625 17.34375 -30.015625 C 21.957031 -30.015625 25.710938 -28.675781 28.609375 -26 C 31.515625 -23.332031 32.96875 -19.515625 32.96875 -14.546875 C 32.96875 -13.867188 32.945312 -13.414062 32.90625 -13.1875 Z M 12.046875 -18.765625 L 23.140625 -18.765625 C 22.910156 -20.273438 22.3125 -21.4375 21.34375 -22.25 C 20.375 -23.0625 19.132812 -23.46875 17.625 -23.46875 C 15.957031 -23.46875 14.628906 -23.03125 13.640625 -22.15625 C 12.660156 -21.289062 12.128906 -20.160156 12.046875 -18.765625 Z M 12.046875 -18.765625 "/></g></g></g><g fill="#d9d9d9" fill-opacity="1"><g transform="translate(104.283379, 49.763982)"><g><path d="M 5.40625 -3.609375 C 2.675781 -6.585938 1.3125 -10.234375 1.3125 -14.546875 C 1.3125 -18.867188 2.675781 -22.523438 5.40625 -25.515625 C 8.132812 -28.515625 11.597656 -30.015625 15.796875 -30.015625 C 19.660156 -30.015625 22.847656 -28.800781 25.359375 -26.375 L 25.359375 -29.15625 L 35.40625 -29.15625 L 35.40625 0 L 25.46875 0 L 25.46875 -3.296875 L 25.359375 -3.296875 C 22.847656 -0.523438 19.660156 0.859375 15.796875 0.859375 C 11.597656 0.859375 8.132812 -0.628906 5.40625 -3.609375 Z M 13.953125 -19.5 C 12.648438 -18.207031 12 -16.554688 12 -14.546875 C 12 -12.546875 12.625 -10.910156 13.875 -9.640625 C 15.125 -8.367188 16.769531 -7.734375 18.8125 -7.734375 C 20.78125 -7.734375 22.398438 -8.375 23.671875 -9.65625 C 24.941406 -10.945312 25.578125 -12.578125 25.578125 -14.546875 C 25.578125 -16.554688 24.921875 -18.207031 23.609375 -19.5 C 22.304688 -20.789062 20.707031 -21.4375 18.8125 -21.4375 C 16.882812 -21.4375 15.265625 -20.789062 13.953125 -19.5 Z M 13.953125 -19.5 "/></g></g></g><g fill="#ff3131" fill-opacity="1"><g transform="translate(143.111438, 49.763982)"><g><path d="M 30.53125 -46.890625 L 30.53125 -37.515625 L 14.09375 -37.515625 L 14.09375 -28.1875 L 29.28125 -28.1875 L 29.28125 -18.8125 L 14.09375 -18.8125 L 14.09375 0 L 3.40625 0 L 3.40625 -46.890625 Z M 30.53125 -46.890625 "/></g></g></g><g fill="#ff3131" fill-opacity="1"><g transform="translate(175.338754, 49.763982)"><g><path d="M 4.375 -45.421875 C 5.550781 -46.597656 6.953125 -47.1875 8.578125 -47.1875 C 10.210938 -47.1875 11.613281 -46.597656 12.78125 -45.421875 C 13.957031 -44.242188 14.546875 -42.835938 14.546875 -41.203125 C 14.546875 -39.578125 13.957031 -38.175781 12.78125 -37 C 11.613281 -35.832031 10.210938 -35.25 8.578125 -35.25 C 6.953125 -35.25 5.550781 -35.832031 4.375 -37 C 3.195312 -38.175781 2.609375 -39.578125 2.609375 -41.203125 C 2.609375 -42.835938 3.195312 -44.242188 4.375 -45.421875 Z M 3.40625 -29.15625 L 3.40625 0 L 13.46875 0 L 13.46875 -29.15625 Z M 3.40625 -29.15625 "/></g></g></g><g fill="#ff3131" fill-opacity="1"><g transform="translate(192.503917, 49.763982)"><g><path d="M 37.171875 0 L 25.015625 0 L 18.59375 -8.25 L 12.171875 0 L 0 0 L 12.453125 -15.234375 L 1.765625 -29.15625 L 13.53125 -29.15625 L 18.59375 -22.390625 L 23.640625 -29.15625 L 35.40625 -29.15625 L 24.734375 -15.234375 Z M 37.171875 0 "/></g></g></g><g fill="#d9d9d9" fill-opacity="1"><g transform="translate(230.09618, 49.519488)"><g><path d="M 7.90625 0 L 7.359375 -1.375 L 7.296875 -1.375 C 6.828125 -0.789062 6.34375 -0.382812 5.84375 -0.15625 C 5.351562 0.0703125 4.710938 0.1875 3.921875 0.1875 C 2.941406 0.1875 2.171875 -0.0859375 1.609375 -0.640625 C 1.054688 -1.203125 0.78125 -2 0.78125 -3.03125 C 0.78125 -4.113281 1.15625 -4.910156 1.90625 -5.421875 C 2.664062 -5.929688 3.800781 -6.210938 5.3125 -6.265625 L 7.078125 -6.3125 L 7.078125 -6.765625 C 7.078125 -7.796875 6.550781 -8.3125 5.5 -8.3125 C 4.6875 -8.3125 3.734375 -8.066406 2.640625 -7.578125 L 1.71875 -9.4375 C 2.894531 -10.050781 4.191406 -10.359375 5.609375 -10.359375 C 6.972656 -10.359375 8.015625 -10.0625 8.734375 -9.46875 C 9.460938 -8.875 9.828125 -7.972656 9.828125 -6.765625 L 9.828125 0 Z M 7.078125 -4.703125 L 6.015625 -4.671875 C 5.203125 -4.640625 4.597656 -4.488281 4.203125 -4.21875 C 3.816406 -3.957031 3.625 -3.554688 3.625 -3.015625 C 3.625 -2.234375 4.070312 -1.84375 4.96875 -1.84375 C 5.601562 -1.84375 6.113281 -2.023438 6.5 -2.390625 C 6.882812 -2.765625 7.078125 -3.257812 7.078125 -3.875 Z M 7.078125 -4.703125 "/></g></g></g><g fill="#d9d9d9" fill-opacity="1"><g transform="translate(241.320723, 49.519488)"><g><path d="M 1.328125 -12.78125 C 1.328125 -13.675781 1.832031 -14.125 2.84375 -14.125 C 3.84375 -14.125 4.34375 -13.675781 4.34375 -12.78125 C 4.34375 -12.34375 4.21875 -12.003906 3.96875 -11.765625 C 3.71875 -11.523438 3.34375 -11.40625 2.84375 -11.40625 C 1.832031 -11.40625 1.328125 -11.863281 1.328125 -12.78125 Z M 4.21875 0 L 1.453125 0 L 1.453125 -10.15625 L 4.21875 -10.15625 Z M 4.21875 0 "/></g></g></g></svg>